<?xml version="1.0" standalone="no"?>
<!DOCTYPE svg PUBLIC "-//W3C//DTD SVG 20010904//EN"
 "http://www.w3.org/TR/2001/REC-SVG-20010904/DTD/svg10.dtd">
<svg version="1.0" xmlns="http://www.w3.org/2000/svg"
 width="32.000000pt" height="32.000000pt" viewBox="0 0 32.000000 32.000000"
 preserveAspectRatio="xMidYMid meet">

<g transform="translate(0.000000,32.000000) scale(0.100000,-0.100000)"
fill="#000000" stroke="none">
<path d="M167 258 c-7 -24 8 -48 29 -48 8 0 14 -5 14 -11 0 -8 4 -8 14 0 19
16 30 -1 21 -32 -5 -17 -4 -19 4 -7 17 23 13 48 -8 55 -12 3 -23 19 -27 38 -4
18 -9 26 -11 19 -4 -9 -9 -10 -18 -2 -9 8 -14 5 -18 -12z m33 -22 c0 -3 -4 -8
-10 -11 -5 -3 -10 -1 -10 4 0 6 5 11 10 11 6 0 10 -2 10 -4z"/>
<path d="M113 255 c-9 -24 1 -27 15 -5 8 13 8 20 2 20 -6 0 -13 -7 -17 -15z"/>
<path d="M130 236 c0 -8 5 -18 10 -21 6 -3 10 3 10 14 0 12 -4 21 -10 21 -5 0
-10 -6 -10 -14z"/>
<path d="M73 213 c-16 -6 -17 -33 -2 -53 8 -12 9 -10 4 8 -5 17 -1 28 12 37
18 14 10 18 -14 8z"/>
<path d="M125 200 c22 -24 65 -29 45 -5 -7 8 -16 13 -20 10 -5 -3 -11 -1 -15
5 -3 5 -11 10 -17 10 -6 0 -3 -9 7 -20z"/>
<path d="M110 140 c-18 -6 -9 -8 34 -9 33 -1 57 2 54 5 -10 9 -62 12 -88 4z"/>
<path d="M108 99 c-7 -19 34 -94 52 -94 8 0 25 19 38 43 13 23 19 42 13 42 -5
0 -13 -9 -16 -21 -4 -12 -13 -18 -20 -15 -9 3 -12 0 -8 -10 3 -9 0 -12 -9 -9
-15 6 -32 34 -40 64 -4 13 -5 13 -10 0z"/>
</g>
</svg>
